# xmcd
#
# Track frame offsets:
#	150
#	2723
#	11263
#	20578
#	33313
#	43060
#	54085
#	65338
#	78013
#	88435
#	97813
#	106740
#	117163
#	129915
#	142003
#	150553
#	155578
#	165853
#	177028
#	187528
#	200353
#	215053
#	217940
#	228253
#	240253
#	250898
#	262078
#	271078
#	279553
#
# Disc length: 3879 seconds
#
# Revision: 1
# Processed by: cddbd v1.5.2PL0 Copyright (c) Steve Scherf et al.
# Submitted via: audiograbber 1.83.01
#
DISCID=690f251d
DTITLE=The Dillards - There Is A Time
DYEAR=1991
DGENRE=Bluegrass
TTITLE0=Intro
TTITLE1=Band In The Hollow
TTITLE2=Dooley
TTITLE3=Polly Vaughn
TTITLE4=The Old Home Place
TTITLE5=Somebody Touched Me
TTITLE6=Hamilton County Breakdown
TTITLE7=Walkin' Down The Line
TTITLE8=Never See My Home Again
TTITLE9=Paddy On The Turnpike
TTITLE10=Old Blue
TTITLE11=Liberty
TTITLE12=There Is A Time
TTITLE13=The Whole World 'Round
TTITLE14=Sally Johnson
TTITLE15=Yesterday
TTITLE16=Ebo Walker
TTITLE17=Rainmaker
TTITLE18=Copperfileds
TTITLE19=Old Man At The Mill
TTITLE20=Lemon Chimes
TTITLE21=I'll Fly Away
TTITLE22=Nobody Knows
TTITLE23=Listen To The Sound
TTITLE24=Reason To Believe
TTITLE25=Hey Boys
TTITLE26=I've Just Seen A Face
TTITLE27=Don't You Cry
TTITLE28=She Sang Hymns Out Of Tune
EXTD=
EXTT0=
EXTT1=
EXTT2=
EXTT3=
EXTT4=
EXTT5=
EXTT6=
EXTT7=
EXTT8=
EXTT9=
EXTT10=
EXTT11=
EXTT12=
EXTT13=
EXTT14=
EXTT15=
EXTT16=
EXTT17=
EXTT18=
EXTT19=
EXTT20=
EXTT21=
EXTT22=
EXTT23=
EXTT24=
EXTT25=
EXTT26=
EXTT27=
EXTT28=
PLAYORDER=
